<mxfile host="app.diagrams.net" modified="2021-06-10T03:57:03.107Z" agent="5.0 (Windows NT 10.0; Win64; x64) AppleWebKit/537.36 (KHTML, like Gecko) Chrome/91.0.4472.77 Safari/537.36" etag="rDPWloAxm308mmiAhUHs" version="14.7.6" type="github">
  <diagram id="W_GJ91xvCaQ_tqcnhESZ" name="페이지-1">
    <mxGraphModel dx="1422" dy="762" grid="1" gridSize="10" guides="1" tooltips="1" connect="1" arrows="1" fold="1" page="1" pageScale="1" pageWidth="827" pageHeight="1169" math="0" shadow="0">
      <root>
        <mxCell id="0" />
        <mxCell id="1" parent="0" />
        <mxCell id="GuhdEmiDV5tB94LSNc8u-12" style="edgeStyle=orthogonalEdgeStyle;rounded=0;orthogonalLoop=1;jettySize=auto;html=1;exitX=0;exitY=0.5;exitDx=0;exitDy=0;entryX=0.014;entryY=0.35;entryDx=0;entryDy=0;entryPerimeter=0;" edge="1" parent="1" source="GuhdEmiDV5tB94LSNc8u-1" target="GuhdEmiDV5tB94LSNc8u-3">
          <mxGeometry relative="1" as="geometry" />
        </mxCell>
        <mxCell id="GuhdEmiDV5tB94LSNc8u-13" style="edgeStyle=orthogonalEdgeStyle;rounded=0;orthogonalLoop=1;jettySize=auto;html=1;exitX=0;exitY=0.5;exitDx=0;exitDy=0;entryX=0;entryY=0.25;entryDx=0;entryDy=0;" edge="1" parent="1" source="GuhdEmiDV5tB94LSNc8u-1" target="GuhdEmiDV5tB94LSNc8u-3">
          <mxGeometry relative="1" as="geometry" />
        </mxCell>
        <mxCell id="GuhdEmiDV5tB94LSNc8u-1" value="" style="whiteSpace=wrap;html=1;aspect=fixed;" vertex="1" parent="1">
          <mxGeometry x="270" y="210" width="430" height="430" as="geometry" />
        </mxCell>
        <mxCell id="GuhdEmiDV5tB94LSNc8u-2" value="Server" style="text;html=1;strokeColor=none;fillColor=none;align=center;verticalAlign=middle;whiteSpace=wrap;rounded=0;" vertex="1" parent="1">
          <mxGeometry x="445" y="240" width="40" height="20" as="geometry" />
        </mxCell>
        <mxCell id="GuhdEmiDV5tB94LSNc8u-14" style="edgeStyle=orthogonalEdgeStyle;rounded=0;orthogonalLoop=1;jettySize=auto;html=1;exitX=1;exitY=0.25;exitDx=0;exitDy=0;" edge="1" parent="1" source="GuhdEmiDV5tB94LSNc8u-3" target="GuhdEmiDV5tB94LSNc8u-4">
          <mxGeometry relative="1" as="geometry" />
        </mxCell>
        <mxCell id="GuhdEmiDV5tB94LSNc8u-3" value="Vue.js로 작성&lt;br&gt;Client&lt;br&gt;Admin&lt;br&gt;Master" style="whiteSpace=wrap;html=1;aspect=fixed;" vertex="1" parent="1">
          <mxGeometry x="300" y="380" width="140" height="140" as="geometry" />
        </mxCell>
        <mxCell id="GuhdEmiDV5tB94LSNc8u-7" style="edgeStyle=orthogonalEdgeStyle;rounded=0;orthogonalLoop=1;jettySize=auto;html=1;exitX=1;exitY=0.5;exitDx=0;exitDy=0;entryX=0;entryY=0.5;entryDx=0;entryDy=0;" edge="1" parent="1" source="GuhdEmiDV5tB94LSNc8u-4" target="GuhdEmiDV5tB94LSNc8u-5">
          <mxGeometry relative="1" as="geometry" />
        </mxCell>
        <mxCell id="GuhdEmiDV5tB94LSNc8u-4" value="RestApi" style="whiteSpace=wrap;html=1;aspect=fixed;" vertex="1" parent="1">
          <mxGeometry x="470" y="400" width="80" height="80" as="geometry" />
        </mxCell>
        <mxCell id="GuhdEmiDV5tB94LSNc8u-5" value="DBServer" style="whiteSpace=wrap;html=1;aspect=fixed;" vertex="1" parent="1">
          <mxGeometry x="620" y="410" width="60" height="60" as="geometry" />
        </mxCell>
        <mxCell id="GuhdEmiDV5tB94LSNc8u-6" value="WAS" style="text;html=1;strokeColor=none;fillColor=none;align=center;verticalAlign=middle;whiteSpace=wrap;rounded=0;" vertex="1" parent="1">
          <mxGeometry x="490" y="380" width="40" height="20" as="geometry" />
        </mxCell>
        <mxCell id="GuhdEmiDV5tB94LSNc8u-11" style="edgeStyle=orthogonalEdgeStyle;rounded=0;orthogonalLoop=1;jettySize=auto;html=1;exitX=1;exitY=0.5;exitDx=0;exitDy=0;entryX=0;entryY=0.5;entryDx=0;entryDy=0;" edge="1" parent="1" source="GuhdEmiDV5tB94LSNc8u-8" target="GuhdEmiDV5tB94LSNc8u-1">
          <mxGeometry relative="1" as="geometry" />
        </mxCell>
        <mxCell id="GuhdEmiDV5tB94LSNc8u-8" value="Client" style="rounded=0;whiteSpace=wrap;html=1;" vertex="1" parent="1">
          <mxGeometry x="90" y="410" width="90" height="40" as="geometry" />
        </mxCell>
        <mxCell id="GuhdEmiDV5tB94LSNc8u-9" value="WebServer" style="text;html=1;strokeColor=none;fillColor=none;align=center;verticalAlign=middle;whiteSpace=wrap;rounded=0;" vertex="1" parent="1">
          <mxGeometry x="350" y="360" width="40" height="20" as="geometry" />
        </mxCell>
      </root>
    </mxGraphModel>
  </diagram>
</mxfile>
